<svg width="54" height="54" viewBox="0 0 54 54" fill="none" xmlns="http://www.w3.org/2000/svg">
<g clip-path="url(#clip0_189_2924)">
<path d="M26.7912 0C21.7283 0 16.8604 1.41669 12.663 4.04181V1.5698C12.663 0.702851 11.9602 0 11.0932 0C10.2263 0 9.52344 0.702851 9.52344 1.5698V7.07864C9.52344 7.68239 9.86963 8.23255 10.4139 8.49387C10.9581 8.75508 11.604 8.6812 12.0752 8.3035C16.2893 4.9253 21.378 3.1396 26.7912 3.1396C39.8328 3.1396 50.4429 13.7497 50.4429 26.7912C50.4429 31.8385 48.7339 36.893 45.6307 41.0241C45.1099 41.7173 45.2498 42.7014 45.943 43.222C46.6361 43.7427 47.6202 43.6029 48.1409 42.9097C51.6499 38.2384 53.5825 32.5141 53.5825 26.7912C53.5825 12.0394 41.5422 0 26.7912 0Z" fill="#3AAADE"/>
<path d="M26.7912 53.5824C31.8542 53.5824 36.7221 52.1657 40.9194 49.5406V52.0126C40.9194 52.8796 41.6223 53.5824 42.4892 53.5824C43.3562 53.5824 44.059 52.8796 44.059 52.0126V46.5038C44.059 45.9 43.7128 45.3499 43.1685 45.0886C42.6241 44.8272 41.9783 44.9012 41.5073 45.2789C37.2932 48.6572 32.2044 50.4428 26.7912 50.4428C13.7497 50.4428 3.1396 39.8328 3.1396 26.7912C3.1396 21.744 4.84859 16.6894 7.95176 12.5583C8.47252 11.8651 8.3327 10.8811 7.63948 10.3604C6.94615 9.83967 5.9622 9.97959 5.44155 10.6727C1.93253 15.344 0 21.0683 0 26.7912C0 41.543 12.0403 53.5824 26.7912 53.5824Z" fill="#3AAADE"/>
<path d="M26.7913 47.3034C27.6582 47.3034 28.3611 46.6005 28.3611 45.7336V41.006C31.6251 40.9247 34.2896 40.5401 36.4496 39.3072C39.4574 37.5904 40.9195 34.5234 40.9195 29.9309C40.9195 22.5682 32.6668 11.8263 27.9371 6.77619C27.6403 6.4592 27.2255 6.2793 26.7913 6.2793C26.3571 6.2793 25.9422 6.4592 25.6454 6.77619C20.9755 11.7625 12.6631 22.5345 12.6631 29.9309C12.6631 34.5234 14.1252 37.5904 17.1329 39.3072C19.293 40.5401 21.9574 40.9247 25.2215 41.006V45.7336C25.2215 46.6005 25.9243 47.3034 26.7913 47.3034ZM18.6893 36.5805C17.4501 35.8731 15.8027 34.4144 15.8027 29.9309C15.8027 23.4553 23.7775 13.6715 26.7975 10.199C30.6752 14.632 37.7799 23.9837 37.7799 29.9309C37.7799 34.4144 36.1324 35.8731 34.8932 36.5805C33.2332 37.528 30.8456 37.7999 28.3611 37.8659V33.7208L34.1804 27.9015C34.7935 27.2884 34.7935 26.2945 34.1804 25.6815C33.5675 25.0684 32.5735 25.0684 31.9604 25.6815L28.3611 29.2807V24.302L31.0408 21.6222C31.6539 21.0091 31.6539 20.0152 31.0408 19.4022C30.4279 18.7891 29.4339 18.7891 28.8208 19.4022L26.7913 21.4317L24.7616 19.4021C24.1487 18.789 23.1547 18.789 22.5416 19.4021C21.9286 20.0151 21.9286 21.009 22.5416 21.6221L25.2215 24.302V29.2807L21.622 25.6813C21.0091 25.0682 20.0151 25.0682 19.402 25.6813C18.789 26.2943 18.789 27.2882 19.402 27.9013L25.2215 33.7207V37.8657C22.7369 37.7999 20.3492 37.5279 18.6893 36.5805Z" fill="white"/>
</g>
<defs>
<clipPath id="clip0_189_2924">
<rect width="53.5825" height="53.5825" fill="white"/>
</clipPath>
</defs>
</svg>
