<svg width="54" height="54" viewBox="0 0 54 54" fill="none" xmlns="http://www.w3.org/2000/svg">
<g clip-path="url(#clip0_189_2913)">
<path d="M26.8616 9.74707C26.8242 9.74707 26.786 9.74718 26.7484 9.74739C17.3694 9.80709 9.8004 17.2518 9.60209 26.6372C9.48909 31.9959 11.8074 37.0113 15.9624 40.3975C16.9238 41.1808 17.475 42.3329 17.475 43.5583V52.1478C17.475 53.0164 18.1798 53.7217 19.0489 53.7217H19.0588L34.6823 53.6242C35.5477 53.6189 36.2463 52.9158 36.2463 52.0504V43.5909C36.2463 42.3461 36.8018 41.1789 37.7703 40.3881C41.8077 37.0923 44.1232 32.2159 44.1232 27.0096C44.1232 17.4688 36.403 9.74707 26.8616 9.74707ZM20.6228 50.5641V45.95H33.0986V50.4861L20.6228 50.5641ZM35.7799 37.9498C34.2818 39.1726 33.3462 40.9096 33.1417 42.8024H20.5821C20.3841 40.9149 19.4506 39.1796 17.951 37.9574C14.5527 35.188 12.6567 31.0862 12.7492 26.7036C12.9115 19.0095 19.0696 12.9441 26.7685 12.895C26.7994 12.8949 26.8302 12.8948 26.8611 12.8948C34.6626 12.8948 40.9755 19.2081 40.9755 27.0096C40.9754 31.2667 39.0817 35.2543 35.7799 37.9498Z" fill="#3AAADE"/>
<path d="M34.8045 21.2228L27.5648 17.6029C27.1217 17.3814 26.6002 17.3814 26.1571 17.6029L18.9174 21.2228C18.3861 21.4885 18.0474 22.0359 18.0474 22.6306V31.077C18.0474 31.6731 18.3842 32.218 18.9174 32.4847L26.1571 36.1046C26.5809 36.3162 27.0981 36.3305 27.5458 36.114L34.7855 32.6147C35.3292 32.352 35.6746 31.8015 35.6746 31.1977V22.6534C35.6878 22.0622 35.3471 21.494 34.8045 21.2228ZM26.861 20.7703L30.6509 22.6652L26.9696 24.5994L23.1177 22.6419L26.861 20.7703ZM21.1951 25.1958L25.3938 27.3294L25.3236 32.1683L21.1951 30.104V25.1958ZM28.4716 32.1702L28.5418 27.3292L32.5268 25.2354V30.2101L28.4716 32.1702Z" fill="white"/>
<path d="M4.82655 25.2798H1.57388C0.704677 25.2798 0 25.9845 0 26.8537C0 27.7229 0.704677 28.4275 1.57388 28.4275H4.82655C5.69575 28.4275 6.40043 27.7229 6.40043 26.8537C6.40043 25.9845 5.69575 25.2798 4.82655 25.2798Z" fill="#3AAADE"/>
<path d="M52.1478 25.2798H48.8952C48.026 25.2798 47.3213 25.9845 47.3213 26.8537C47.3213 27.7229 48.026 28.4275 48.8952 28.4275H52.1478C53.017 28.4275 53.7217 27.7229 53.7217 26.8537C53.7217 25.9845 53.017 25.2798 52.1478 25.2798Z" fill="#3AAADE"/>
<path d="M26.861 6.40043C27.7302 6.40043 28.4349 5.69575 28.4349 4.82655V1.57388C28.4349 0.704677 27.7302 0 26.861 0C25.9918 0 25.2871 0.704677 25.2871 1.57388V4.82655C25.2871 5.69575 25.9918 6.40043 26.861 6.40043Z" fill="#3AAADE"/>
<path d="M10.1673 12.3861C10.7818 13.0006 11.7784 13.0007 12.3931 12.3861C13.0077 11.7714 13.0077 10.775 12.3931 10.1603L10.093 7.86036C9.47847 7.24582 8.48189 7.24571 7.86724 7.86036C7.25259 8.47501 7.25259 9.47149 7.86724 10.0861L10.1673 12.3861Z" fill="#3AAADE"/>
<path d="M43.5544 41.3213C42.9399 40.7068 41.9433 40.7066 41.3287 41.3213C40.714 41.936 40.714 42.9324 41.3287 43.5471L43.6287 45.847C44.2433 46.4616 45.2399 46.4617 45.8545 45.847C46.4692 45.2324 46.4692 44.2359 45.8545 43.6213L43.5544 41.3213Z" fill="#3AAADE"/>
<path d="M10.1673 41.3213L7.86724 43.6213C7.25259 44.2359 7.25259 45.2324 7.86724 45.847C8.48178 46.4617 9.47826 46.4617 10.093 45.847L12.3931 43.5471C13.0077 42.9324 13.0077 41.936 12.3931 41.3213C11.7786 40.7068 10.7821 40.7066 10.1673 41.3213Z" fill="#3AAADE"/>
<path d="M43.6287 7.86012L41.3287 10.1601C40.714 10.7747 40.714 11.7712 41.3287 12.3859C41.9432 13.0005 42.9397 13.0005 43.5544 12.3859L45.8545 10.0859C46.4692 9.47124 46.4692 8.47477 45.8545 7.86012C45.2399 7.24557 44.2433 7.24547 43.6287 7.86012Z" fill="#3AAADE"/>
</g>
<defs>
<clipPath id="clip0_189_2913">
<rect width="53.7216" height="53.7216" fill="white"/>
</clipPath>
</defs>
</svg>
