<svg width="54" height="54" viewBox="0 0 54 54" fill="none" xmlns="http://www.w3.org/2000/svg">
<path d="M26.7893 9.60107C17.27 9.60107 9.52539 17.406 9.52539 26.9995C9.52539 36.593 17.27 44.398 26.7893 44.398C36.3087 44.398 44.0532 36.593 44.0532 26.9995C44.0532 17.406 36.3088 9.60107 26.7893 9.60107ZM26.7893 41.2346C19.0008 41.2346 12.6643 34.8488 12.6643 26.9995C12.6643 19.1503 19.0008 12.7644 26.7893 12.7644C34.5779 12.7644 40.9144 19.1503 40.9144 26.9995C40.9144 34.8488 34.578 41.2346 26.7893 41.2346Z" fill="#3AAADE"/>
<path d="M33.5268 21.1364L25.2199 29.508L20.0518 24.2997C19.4389 23.682 18.4452 23.682 17.8322 24.2997C17.2193 24.9174 17.2193 25.9188 17.8322 26.5365L24.11 32.8632C24.4165 33.1721 24.8182 33.3266 25.2197 33.3266C25.6213 33.3266 26.0231 33.1722 26.3295 32.8632L35.7461 23.3732C36.3591 22.7555 36.3591 21.7541 35.7461 21.1364C35.1334 20.5187 34.1397 20.5187 33.5268 21.1364Z" fill="white"/>
<path d="M51.3357 15.9104C51.3305 15.9071 45.8541 12.6035 45.8541 12.6035L44.6248 7.47274C44.0794 5.19607 42.0022 3.6744 39.6847 3.85555L33.4442 4.34228C33.4442 4.34228 29.8494 1.14498 29.8423 1.13897C28.0732 -0.379655 25.5051 -0.379655 23.736 1.13897C23.729 1.14498 20.1341 4.34228 20.1341 4.34228L13.8936 3.85555C11.5948 3.67566 9.53344 5.17077 8.96739 7.41601L7.25607 12.9114C7.25607 12.9114 2.25403 15.9062 2.24743 15.9104C0.267523 17.1367 -0.526095 19.5981 0.360539 21.7631L2.49583 26.9779L0.360539 32.1926C-0.526095 34.3576 0.267523 36.819 2.24754 38.0453C2.25361 38.0491 7.71926 41.3312 7.71926 41.3312L8.95369 46.4829C9.46972 48.6371 11.357 50.1149 13.5214 50.1147C13.8525 50.1147 13.4806 50.1273 20.0694 49.6184C20.0694 49.6184 23.7302 52.856 23.7361 52.861C24.6206 53.6203 25.7049 54 26.7893 54C27.8736 54 28.958 53.6203 29.8425 52.861C29.8484 52.8559 33.5093 49.6184 33.5093 49.6184L39.6848 50.1001C42.0016 50.2805 44.0796 48.7596 44.6249 46.4829L45.8542 41.3521C52.5555 37.3095 51.1346 38.1704 51.3358 38.0452C53.3156 36.8189 54.1092 34.3575 53.2226 32.1925L51.0873 26.9777L53.2226 21.7629C54.1091 19.5981 53.3156 17.1368 51.3357 15.9104ZM47.9386 27.5812L50.321 33.3994C50.6156 34.1187 50.3537 34.9364 49.6984 35.3464L43.6771 38.9789C43.3157 39.1969 43.0564 39.5521 42.9576 39.9647L41.5736 45.7407C41.3919 46.4995 40.7005 47.0063 39.927 46.9463L33.0921 46.4132C32.6712 46.3804 32.2536 46.5202 31.9358 46.8014L27.7996 50.4594C27.2125 50.9573 26.3659 50.9573 25.7788 50.4591L21.6428 46.8014C21.3249 46.5202 20.9072 46.3801 20.4865 46.4132L13.6517 46.9463C12.8788 47.0064 12.1867 46.4995 12.005 45.7406L10.6156 39.9418C10.5165 39.5282 10.2561 39.1722 9.89337 38.9543L3.88353 35.3455C3.22918 34.9351 2.96781 34.1182 3.26224 33.3993L5.64466 27.5811C5.80297 27.1947 5.80297 26.7609 5.64466 26.3744L3.26193 20.5563C2.96771 19.8378 3.22876 19.0213 3.88238 18.6107L9.37545 15.322C9.70775 15.123 9.95552 14.8075 10.0712 14.4358C12.0956 7.93122 11.9814 8.31303 12.0048 8.21507C12.1865 7.45629 12.8767 6.94868 13.6515 7.00941L20.5539 7.54782C20.9774 7.58072 21.3953 7.43963 21.7135 7.15672L25.7803 3.53953C26.3665 3.04331 27.2115 3.04331 27.7978 3.53932L31.8648 7.15672C32.183 7.43984 32.6019 7.58072 33.0244 7.54782L39.9268 7.00941C40.6989 6.94931 41.3918 7.45619 41.5735 8.21518L42.9575 13.991C43.0563 14.4037 43.3156 14.7589 43.677 14.977L49.6983 18.6093C50.3536 19.0194 50.6156 19.8369 50.3209 20.5563L47.9385 26.3744C47.7803 26.761 47.7803 27.1948 47.9386 27.5812Z" fill="#3AAADE"/>
</svg>
